<mxfile host="app.diagrams.net" modified="2024-07-23T07:55:58.001Z" agent="Mozilla/5.0 (Windows NT 10.0; Win64; x64) AppleWebKit/537.36 (KHTML, like Gecko) Chrome/126.0.0.0 Safari/537.36" version="24.7.3" etag="-57DZe2h5FpACaPmm_SL" type="github">
  <diagram name="Page-1" id="e-H9T8JIJKXD8zQzpnsH">
    <mxGraphModel>
      <root>
        <mxCell id="0" />
        <mxCell id="1" parent="0" />
      </root>
    </mxGraphModel>
  </diagram>
</mxfile>
